<svg id="visual" viewBox="0 0 900 600" width="900" height="600" xmlns="http://www.w3.org/2000/svg" xmlns:xlink="http://www.w3.org/1999/xlink" version="1.1"><rect x="0" y="0" width="900" height="600" fill="#001220"></rect><defs><linearGradient id="grad1_0" x1="33.3%" y1="0%" x2="100%" y2="100%"><stop offset="20%" stop-color="#001220" stop-opacity="1"></stop><stop offset="80%" stop-color="#001220" stop-opacity="1"></stop></linearGradient></defs><defs><linearGradient id="grad2_0" x1="0%" y1="0%" x2="66.7%" y2="100%"><stop offset="20%" stop-color="#001220" stop-opacity="1"></stop><stop offset="80%" stop-color="#001220" stop-opacity="1"></stop></linearGradient></defs><g transform="translate(900, 0)"><path d="M0 486.7C-63.8 481.3 -127.7 475.9 -186.3 449.7C-244.9 423.5 -298.3 376.5 -321.7 321.7C-345.2 267 -338.7 204.5 -361.2 149.6C-383.8 94.7 -435.3 47.4 -486.7 0L0 0Z" fill="#5f1d6c"></path></g><g transform="translate(0, 600)"><path d="M0 -486.7C50.5 -441.9 101.1 -397 154.2 -372.3C207.4 -347.6 263.2 -343 316.8 -316.8C370.4 -290.6 421.7 -242.7 449.7 -186.3C477.7 -129.9 482.2 -64.9 486.7 0L0 0Z" fill="#5f1d6c"></path></g></svg>