<svg id="visual" viewBox="0 0 960 540" width="960" height="540" xmlns="http://www.w3.org/2000/svg" xmlns:xlink="http://www.w3.org/1999/xlink" version="1.1"><rect x="0" y="0" width="960" height="540" fill="#001220"></rect><defs><linearGradient id="grad1_0" x1="43.8%" y1="0%" x2="100%" y2="100%"><stop offset="14.444444444444446%" stop-color="#001220" stop-opacity="1"></stop><stop offset="85.55555555555554%" stop-color="#001220" stop-opacity="1"></stop></linearGradient></defs><defs><linearGradient id="grad2_0" x1="0%" y1="0%" x2="56.3%" y2="100%"><stop offset="14.444444444444446%" stop-color="#001220" stop-opacity="1"></stop><stop offset="85.55555555555554%" stop-color="#001220" stop-opacity="1"></stop></linearGradient></defs><g transform="translate(960, 0)"><path d="M0 486C-45.2 435 -90.4 383.9 -152.3 367.7C-214.2 351.5 -292.7 370.1 -343.7 343.7C-394.6 317.2 -417.9 245.8 -437 181C-456.1 116.2 -471.1 58.1 -486 0L0 0Z" fill="#fab83c"></path></g><g transform="translate(0, 540)"><path d="M0 -486C65.1 -481.4 130.3 -476.9 186 -449C241.7 -421.2 287.9 -370 318.2 -318.2C348.5 -266.4 362.7 -213.9 388 -160.7C413.3 -107.6 449.7 -53.8 486 0L0 0Z" fill="#fab83c"></path></g></svg>