<svg id="visual" viewBox="0 0 960 540" width="960" height="540" xmlns="http://www.w3.org/2000/svg" xmlns:xlink="http://www.w3.org/1999/xlink" version="1.1"><path d="M0 114L87 114L87 109L175 109L175 201L262 201L262 131L349 131L349 66L436 66L436 147L524 147L524 125L611 125L611 185L698 185L698 168L785 168L785 222L873 222L873 260L960 260L960 174L960 0L960 0L873 0L873 0L785 0L785 0L698 0L698 0L611 0L611 0L524 0L524 0L436 0L436 0L349 0L349 0L262 0L262 0L175 0L175 0L87 0L87 0L0 0Z" fill="#fa7268"></path><path d="M0 185L87 185L87 168L175 168L175 309L262 309L262 239L349 239L349 158L436 158L436 195L524 195L524 212L611 212L611 255L698 255L698 233L785 233L785 260L873 260L873 298L960 298L960 228L960 172L960 258L873 258L873 220L785 220L785 166L698 166L698 183L611 183L611 123L524 123L524 145L436 145L436 64L349 64L349 129L262 129L262 199L175 199L175 107L87 107L87 112L0 112Z" fill="#ea5e66"></path><path d="M0 249L87 249L87 228L175 228L175 363L262 363L262 320L349 320L349 239L436 239L436 271L524 271L524 293L611 293L611 347L698 347L698 287L785 287L785 293L873 293L873 336L960 336L960 287L960 226L960 296L873 296L873 258L785 258L785 231L698 231L698 253L611 253L611 210L524 210L524 193L436 193L436 156L349 156L349 237L262 237L262 307L175 307L175 166L87 166L87 183L0 183Z" fill="#d84a64"></path><path d="M0 476L87 476L87 444L175 444L175 471L262 471L262 422L349 422L349 449L436 449L436 460L524 460L524 449L611 449L611 422L698 422L698 433L785 433L785 417L873 417L873 487L960 487L960 455L960 285L960 334L873 334L873 291L785 291L785 285L698 285L698 345L611 345L611 291L524 291L524 269L436 269L436 237L349 237L349 318L262 318L262 361L175 361L175 226L87 226L87 247L0 247Z" fill="#c53762"></path><path d="M0 541L87 541L87 541L175 541L175 541L262 541L262 541L349 541L349 541L436 541L436 541L524 541L524 541L611 541L611 541L698 541L698 541L785 541L785 541L873 541L873 541L960 541L960 541L960 453L960 485L873 485L873 415L785 415L785 431L698 431L698 420L611 420L611 447L524 447L524 458L436 458L436 447L349 447L349 420L262 420L262 469L175 469L175 442L87 442L87 474L0 474Z" fill="#b0235f"></path></svg>